<?xml version="1.0" encoding="utf-8"?>
<!-- Generator: Adobe Illustrator 15.0.0, SVG Export Plug-In . SVG Version: 6.00 Build 0)  -->
<!DOCTYPE svg PUBLIC "-//W3C//DTD SVG 1.0//EN" "http://www.w3.org/TR/2001/REC-SVG-20010904/DTD/svg10.dtd">
<svg version="1.0" id="Layer_1" xmlns="http://www.w3.org/2000/svg" xmlns:xlink="http://www.w3.org/1999/xlink" x="0px" y="0px"
	 width="1232px" height="610px" viewBox="0 0 1232 610" enable-background="new 0 0 1232 610" xml:space="preserve">
<g id="_x33_D_Logo_Vector">
	<linearGradient id="SVGID_1_" gradientUnits="userSpaceOnUse" x1="512.7236" y1="502.1953" x2="512.5793" y2="460.8568">
		<stop  offset="0" style="stop-color:#000000"/>
		<stop  offset="0.204" style="stop-color:#000000"/>
		<stop  offset="0.7649" style="stop-color:#8E8C8C;stop-opacity:0"/>
	</linearGradient>
	<path opacity="0.2" fill="url(#SVGID_1_)" d="M974.362,489.557l-11.325-7.945c-2.347-1.029-5.75-1.191-5.75-1.191
		c-10.153-1.479-51.077-6.176-51.077-6.176c-60.966-5.297-194.94-7.055-194.94-7.055l-202.458-1.678l-95.625-3.041
		c-32.387,0.875-181.722,6.768-181.722,6.768l4.489-2.049c-15.854-0.879-67.511,0-67.511,0c-13.549,0.301-96.438,3.391-96.438,3.391
		l-21.486,9.84c-0.792,1.494,4.791,2.439,4.791,2.439c23.997,5.664,59.191,8.922,59.191,8.922
		c69.201,3.971,237.19,5.881,237.19,5.881l2.351-2.352c53.465,1.176,218.524,8.982,262.807,7.832
		c44.291-1.15,192.472-8.416,192.472-8.416l2.057,3.229c54.778,1.334,156.66-5.146,156.66-5.146
		C977.599,492.373,974.362,489.557,974.362,489.557z M131.729,481.023c-8.088,0.299-18.266-3.971-18.266-3.971l27.983-1.033
		L131.729,481.023z M482.597,478.963l-3.241-2.061h4.722L482.597,478.963z M531.037,485.297v-1.029l5.004,1.029H531.037z
		 M882.348,485.74l-4.721-4.57c13.564,0.592,30.787,4.57,30.787,4.57C903.255,485.297,882.348,485.74,882.348,485.74z"/>
	
		<radialGradient id="SVGID_2_" cx="344.729" cy="87.5029" r="628.2177" gradientTransform="matrix(0.7924 0 0 0.019 267.7841 494.1931)" gradientUnits="userSpaceOnUse">
		<stop  offset="0" style="stop-color:#827C7A"/>
		<stop  offset="0.03" style="stop-color:#837D7B;stop-opacity:0.97"/>
		<stop  offset="0.3619" style="stop-color:#8A8584;stop-opacity:0.6381"/>
		<stop  offset="0.6882" style="stop-color:#8D8A8A;stop-opacity:0.3118"/>
		<stop  offset="1" style="stop-color:#8E8C8C;stop-opacity:0"/>
	</radialGradient>
	<path fill="url(#SVGID_2_)" d="M37.814,500.742c0-6.611,224.299-11.973,500.993-11.973c276.691,0,500.978,5.361,500.978,11.973
		c0,6.604-224.286,11.967-500.978,11.967C262.113,512.709,37.814,507.346,37.814,500.742z"/>
	<path d="M172.772,274.902c0,0,0.057-4.399,0.294-6.75l16.736,0.714c0,2.616-0.033,4.623-0.033,7.758l0.311,51.502l-17.308,0.172
		V274.902z"/>
	<path fill="#5B5959" d="M190.08,336.266v-8.139h-16.691v12.252c0,1.736,0.057,3.359,0.13,4.861l16.7-3.486
		C190.128,340.074,190.08,338.246,190.08,336.266z"/>
	<path fill="#5B5959" d="M195.589,251.388c27.048-41.234,149.258-70.499,192.524-81.807c-3.191-0.8-9.57-2.792-9.57-2.792
		s-13.696,3.591-27.044,7.076c-55.803,14.692-148.915,41.896-172.475,77.824c-3.089,4.701-4.795,9.688-5.456,16.536l16.512,0.641
		C190.659,262.097,192.524,256.073,195.589,251.388z"/>
	<path d="M1054.696,276.625c0-2.93-0.078-5.518-0.266-7.848l-14.646-0.788c0.151,2.02,0.229,4.245,0.229,6.75v51.555l14.684-0.289
		V276.625z"/>
	<path d="M1034.491,359.613c-34.32,46.564-192.512,81.801-192.512,81.801l7.361,7.023c0,0,60.619-15.211,83.199-22.871
		c48.307-15.316,99.527-35.875,116.128-61.162c3.943-6.016,5.787-11.574,6.013-21.834l-14.717-3.039
		C1039.702,348.738,1038.475,354.227,1034.491,359.613z"/>
	<path d="M262.631,283.563v45.662h17.577c9.019,0,15.749-1.15,19.605-3.121c-2.657,0.6-3.534,0.58-6.721,0.58h-17.356v-43.121
		H262.631z"/>
	<path fill="#5B5959" d="M316.447,347.729c-0.428,0.283-4.938,2.879-7.007,3.568c5.191-1.102,15.503-4.854,19.034-7.256
		c10.603-7.102,17.018-19.512,17.875-34.383l-10.917,3.154C333.86,328.279,327.69,340.461,316.447,347.729z"/>
	<path fill="#5B5959" d="M446.238,352.75c1.58-0.482,5.154-2.191,6.62-3.168c6.158-4.057,10.753-12.129,10.753-22.27v-0.973
		l-6.656,1.939v2.832C457.045,339.07,452.939,349.248,446.238,352.75z"/>
	<polygon points="382.844,283.563 382.844,329.225 430.368,329.225 430.368,326.875 391.198,326.875 391.198,283.563 	"/>
	<polygon fill="#5B5959" points="512.86,350.654 512.868,326.127 508.812,327.854 508.8,354.623 	"/>
	<polygon fill="#5B5959" points="582.461,350.855 582.461,325.957 580.56,328.291 580.56,354.568 	"/>
	<path d="M506.078,258.317h-16.59l-5.64,0.637h18.34l53.44,53.327c-0.012,0.023,0-4.604,0-4.604L506.078,258.317z"/>
	<polygon fill="#5B5959" points="636.126,318.15 636.126,311.563 635.669,312.053 635.669,320.957 	"/>
	<path fill="#5B5959" d="M679.014,329.822h34.688c2.84,0,3.464-0.303,3.607-0.4c0.012-0.15,0.012-0.602,0.012-1v-8.256
		c0-0.426,0.147-1.363,0.045-1.633l-0.045-1.094c-0.065,0-0.759-0.188-2.697-0.229v9.492l-35.61,0.033V329.822z"/>
	<polygon fill="#5B5959" points="651.826,350.904 652.622,354.83 652.622,328.654 651.826,326.777 	"/>
	<path d="M716.894,282.484c-0.352-0.105-2.996-0.262-2.996-0.262v9.982h-34.884v1.529h34.688c1.926,0,2.799-0.184,3.191-0.299
		C716.894,293.297,716.894,282.604,716.894,282.484z"/>
	<polygon points="835.911,258.95 862.608,258.726 854.753,258.317 829.019,258.317 829.019,326.127 795.093,326.127 
		795.093,329.225 835.911,329.225 	"/>
	<path fill="#5B5959" d="M763.914,326.467v0.846c0,10.002,1.755,16.793,8.427,21.135c0.507,0.334,2.396,1.813,2.968,2.131
		c-3.506-2.484-6.905-9.59-6.905-19.467v-2.824L763.914,326.467z"/>
	<polygon fill="#5B5959" points="883.842,350.855 892.767,354.545 892.767,328.238 883.842,327.291 	"/>
	<path d="M959.985,283.285c-0.352-0.1-2.131-0.246-4.016-0.246h-8.24l-0.036,13.082h-28.539v1.682h36.815
		c1.885,0,4.016-0.252,4.016-0.252S960.005,283.566,959.985,283.285z"/>
	<polygon fill="#5B5959" points="922.104,321.762 947.514,350.855 958.731,354.545 930.634,321.762 	"/>
	<linearGradient id="SVGID_3_" gradientUnits="userSpaceOnUse" x1="268.2427" y1="222.2676" x2="965.4287" y2="222.2676">
		<stop  offset="0" style="stop-color:#901D14"/>
		<stop  offset="1" style="stop-color:#350000"/>
	</linearGradient>
	<path fill="url(#SVGID_3_)" d="M281.265,236.893c0,0,205.906-27.085,335.583-27.085c129.674,0,337.375,27.085,337.375,27.085
		l11.206-0.474c-51.976-6.888-236.003-29.016-349.115-28.775c-120.414,0.233-288.93,20.662-348.071,28.783L281.265,236.893z"/>
	<path fill="#AA2523" d="M961.147,375.604c-19.927,4.09-66.104,6.967-66.104,6.967l0.983,1.113
		c-23.502,3.854-42.604,3.379-54.84,2.225c-6.248,0.648-12.676,1.281-19.233,1.951l4.587,2.293
		c-12.117,2.885-69.263,6.484-69.263,6.484c-15.948,0.84-28.069,0.352-36.104-0.318c-6.157,0.416-12.316,0.809-18.434,1.168
		c0.89,2.439-2.383,2.529-2.383,2.529c-18.924,2.123-75.254,2.771-75.254,2.771c-11.884-0.086-20.728-1.285-26.808-2.551
		c-11.215-0.203-22.862-0.574-34.766-1.086c-5.396,0.605-11.338,0.564-11.338,0.564l-0.779,1.443
		c-10.084,0.326-66.107-5.627-66.107-5.627l-1.759,1.824c-19.344-0.205-39.602-5.162-47.335-7.252
		c-1.959-0.184-3.897-0.367-5.844-0.559l-2.191,2.316c-1.298,0.711-2.935,0.654-2.935,0.654l-63.223-5.828
		c-24.457-2.551-40.471-7.473-46.355-9.525c-2.151-0.27-4.22-0.514-6.199-0.768l-2.816,2.385c-2.155,1.77-10.264,0.457-10.264,0.457
		l-25.498-2.682l-2.93,0.82c101.857,13.525,250.344,28.803,348.083,28.803c101.281,0,279.049-18.461,349.707-28.746L961.147,375.604
		z"/>
	<path d="M290.717,424.004c39.793,12.855,88.018,24.434,88.018,24.434s5.905-3.955,9.378-7.023
		c-43.267-11.313-165.476-40.574-192.524-81.801c-3.354-5.117-4.914-10.002-5.371-17.859l-16.7,3.486
		c0.457,8.635,2.277,13.859,5.991,19.258C196.192,388.762,243.854,408.852,290.717,424.004z"/>
	<path d="M346.446,306.172c0-0.24,0.016-0.857,0.033-1.645c0.057-2.852,0.085-5.488,0.045-6.504
		c-1.612-25.227-18.209-39.698-45.532-39.698H250.4l-14.447,0.629l53.078,0.037c28.346,0,44.919,15.618,46.576,41.767
		c0.065,1.045,0.024,3.781-0.029,6.725c-0.033,0.816-0.033,1.453-0.033,1.713c0,1.225-0.053,2.434-0.114,3.617l10.917-3.154
		C346.414,308.518,346.446,307.355,346.446,306.172z"/>
	<path d="M463.611,281.873c0-17.168-6.028-23.547-22.278-23.547h-52.698c-4.125,0-7.599,0.4-10.472,1.298
		c0.379-0.004,0.735-0.004,1.114-0.004h54.648c16.851,0,23.119,6.599,23.119,24.39v44.27l6.566-1.939V281.873z"/>
	<polygon points="512.841,305.217 508.784,301.174 508.812,327.854 512.868,326.127 	"/>
	<polygon points="582.461,258.317 558.686,258.317 555.609,258.955 580.56,258.955 580.56,328.291 582.461,325.957 	"/>
	<polygon points="636.126,292.951 598.658,292.951 597.055,294.166 635.669,294.379 635.669,312.053 636.126,311.563 	"/>
	<path d="M720.9,258.95c2.563,0,6.02,0,10.035,1.285c-4.86-1.991-10.279-1.918-12.859-1.918l-66.25,0.041v68.419l0.796,1.877V258.95
		H720.9z"/>
	<polygon points="768.403,258.95 795.093,258.95 789.645,258.317 763.914,258.317 763.914,326.467 768.403,328.287 	"/>
	<path d="M960.731,258.95c-4.008-0.633-7.966-0.633-10.011-0.633h-66.879v68.974l8.925,0.947V258.95H960.731z"/>
	<path fill="#5B5959" d="M1054.696,326.006l-14.684,0.289v9.971c0,1.139-0.021,2.225-0.049,3.266l14.717,3.039
		c0.004-0.709,0.016-1.436,0.016-2.191V326.006z"/>
	<path fill="#5B5959" d="M1049.076,251.359c-23.996-37.002-119.385-63.667-174.78-78.179c-10.251-2.661-24.493-6.391-24.493-6.391
		s-4.29,1.583-7.823,2.792c43.267,11.308,165.487,40.573,192.512,81.807c3.183,4.836,4.754,9.456,5.293,16.602l14.646,0.788
		C1053.868,261.738,1052.228,256.196,1049.076,251.359z"/>
	<linearGradient id="SVGID_4_" gradientUnits="userSpaceOnUse" x1="265.0278" y1="375.9043" x2="963.7422" y2="385.3225">
		<stop  offset="0" style="stop-color:#9D2219"/>
		<stop  offset="1" style="stop-color:#400000"/>
	</linearGradient>
	<path fill="url(#SVGID_4_)" d="M306.648,378.779l2.816-2.385c-17.715-2.154-28.2-3.574-28.2-3.574l-10.378,3.734l25.498,2.682
		C296.385,379.236,304.494,380.549,306.648,378.779z"/>
	<linearGradient id="SVGID_5_" gradientUnits="userSpaceOnUse" x1="264.9146" y1="383.416" x2="963.9102" y2="392.838">
		<stop  offset="0" style="stop-color:#9D2219"/>
		<stop  offset="1" style="stop-color:#400000"/>
	</linearGradient>
	<path fill="url(#SVGID_5_)" d="M425.242,392.516c0,0,1.636,0.057,2.935-0.654l2.191-2.316
		c-45.939-4.326-87.272-9.064-114.704-12.383c5.884,2.053,21.898,6.975,46.355,9.525L425.242,392.516z"/>
	<linearGradient id="SVGID_6_" gradientUnits="userSpaceOnUse" x1="264.7813" y1="392.5576" x2="963.8008" y2="401.9799">
		<stop  offset="0" style="stop-color:#9D2219"/>
		<stop  offset="1" style="stop-color:#400000"/>
	</linearGradient>
	<path fill="url(#SVGID_6_)" d="M485.306,395.531c0,0,56.023,5.953,66.107,5.627l0.779-1.443c0,0,5.942,0.041,11.338-0.564
		c-41.39-1.771-86.02-5.223-127.319-9.047c7.733,2.09,27.992,7.047,47.335,7.252L485.306,395.531z"/>
	<path fill="#5B5959" d="M588.383,397.43c-0.302-0.131-0.453-0.205-0.453-0.205C588.027,397.299,588.179,397.355,588.383,397.43z"/>
	<linearGradient id="SVGID_7_" gradientUnits="userSpaceOnUse" x1="264.7583" y1="394.7588" x2="963.7453" y2="404.1807">
		<stop  offset="0" style="stop-color:#9D2219"/>
		<stop  offset="1" style="stop-color:#400000"/>
	</linearGradient>
	<path fill="url(#SVGID_7_)" d="M700.357,400.016c0,0,3.272-0.09,2.383-2.529c-30.207,1.799-59.578,2.93-85.762,2.93
		c-6.076,0-12.3-0.074-18.683-0.18c6.08,1.266,14.924,2.465,26.808,2.551C625.104,402.787,681.434,402.139,700.357,400.016z"/>
	<linearGradient id="SVGID_8_" gradientUnits="userSpaceOnUse" x1="264.8501" y1="385.5205" x2="963.8909" y2="394.9431">
		<stop  offset="0" style="stop-color:#9D2219"/>
		<stop  offset="1" style="stop-color:#400000"/>
	</linearGradient>
	<path fill="url(#SVGID_8_)" d="M757.278,396.637c0,0,57.146-3.6,69.263-6.484l-4.587-2.293c-31.791,3.121-66.5,6.154-100.78,8.459
		C729.209,396.988,741.33,397.477,757.278,396.637z"/>
	<linearGradient id="SVGID_9_" gradientUnits="userSpaceOnUse" x1="265.0215" y1="371.1367" x2="964.0681" y2="380.5594">
		<stop  offset="0" style="stop-color:#9D2219"/>
		<stop  offset="1" style="stop-color:#400000"/>
	</linearGradient>
	<path fill="url(#SVGID_9_)" d="M896.027,383.684l-0.983-1.113c0,0,46.177-2.877,66.104-6.967l-6.925-2.783
		c0,0-48.38,6.436-113.035,13.088C853.423,387.063,872.525,387.537,896.027,383.684z"/>
	<path fill="#5A5959" d="M555.609,310.824v-3.211h-4.478l4.497,4.488C555.617,311.633,555.609,311.211,555.609,310.824z"/>
	<path fill="#5A5959" d="M145.164,347.705c0,8.84,3.759,17.875,6.991,23.141c28.566,46.514,151.828,67.49,217.222,76.51
		c3.114,0.367,6.224,0.723,9.358,1.082c-44.875-11.738-171.584-42.023-199.625-84.75c-4.22-6.449-5.722-12.514-5.722-24.197v-31.877
		h-28.224V347.705z"/>
	<path fill="#5A5959" d="M1054.696,339.49c0,11.684-1.481,17.748-5.706,24.197c-28.027,42.727-154.75,73.012-199.642,84.75
		c3.139-0.359,6.266-0.715,9.383-1.082c65.394-9.02,188.644-29.996,217.206-76.51c3.253-5.266,7.003-14.301,7.003-23.141v-40.092
		h-28.244V339.49z"/>
	<path fill="#5A5959" d="M308.285,307.984c0,13.928-4.346,21.012-28.077,21.012h-17.577v-21.383h-26.677v47.01h48
		c15.802,0,25.657-2.119,32.942-7.074c11.843-7.949,18.65-22.242,18.65-39.25c0-0.131,0-0.363,0-0.686h-27.261V307.984z"/>
	<path fill="#5A5959" d="M430.368,328.996h-47.523v-21.383h-26.685v22.6c0,17.785,6.264,24.41,23.119,24.41h54.648
		c16.851,0,23.119-6.625,23.119-24.41v-22.6h-26.677V328.996z"/>
	<rect x="483.849" y="307.613" fill="#5A5959" width="24.963" height="47.01"/>
	<path fill="#5A5959" d="M555.609,310.824c0,0.387,0.008,0.809,0.02,1.277l-4.497-4.488h-35.9l47.009,47.01h18.319v-47.01h-24.95
		V310.824z"/>
	<rect x="597.055" y="307.613" fill="#5A5959" width="38.614" height="13.107"/>
	<path fill="#5A5959" d="M652.622,354.623h63.667c21.96,0,27.652-11.488,27.652-21.1v-12.525c0-5.248-2.195-9.859-5.187-13.385
		h-86.133V354.623z M713.702,317.195c2.709,0,3.415,0.277,3.51,0.277l0,0c0.109,0.27,0.109,1.387,0.109,1.799v8.26
		c0,0.416,0,1.531-0.012,1.693c-0.144,0.09-0.768,0.389-3.607,0.389h-34.688v-12.418H713.702z"/>
	<path fill="#5A5959" d="M835.911,328.996h-40.818v-21.383h-26.689v22.6c0,17.785,6.276,24.41,23.135,24.41h47.943
		c16.858,0,23.127-6.625,23.127-24.41v-22.6h-26.697V328.996z"/>
	<path fill="#5A5959" d="M892.767,354.623h26.388v-32.861h11.394l28.237,32.861h34.631l-28.591-32.906
		c5.733-0.285,16.602-2.164,19.552-14.104h-91.61V354.623z"/>
	<g>
		<path fill="#C46059" d="M616.04,405.959c-134.46,0-348.083-28.584-348.083-28.584l325.282,121.561l3.191,1.182
			c5.714,1.883,12.762,3.025,20.417,3.025c7.93,0,15.198-1.217,21.021-3.24l1.919-0.719l325.96-121.809
			C965.747,377.375,750.517,405.959,616.04,405.959"/>
		<path fill="#C46059" d="M965.747,377.375c0,0-215.23,28.584-349.707,28.584c-134.46,0-348.083-28.584-348.083-28.584
			l325.282,121.561l3.191,1.182c5.714,1.883,12.762,3.025,20.417,3.025c7.93,0,15.198-1.217,21.021-3.24l1.919-0.719
			L965.747,377.375"/>
	</g>
	<path d="M179.11,251.531c28.041-42.707,154.75-73.025,199.625-84.741c-3.134,0.343-6.244,0.706-9.358,1.082
		c-65.394,9.006-188.655,29.991-217.222,76.494c-3.232,5.285-6.991,14.316-6.991,23.147v40.101h28.224v-31.887
		C173.388,264.047,174.89,257.975,179.11,251.531z"/>
	<path d="M1075.938,244.365c-28.563-46.502-151.813-67.487-217.206-76.494c-3.117-0.375-6.244-0.739-9.383-1.082
		c44.892,11.716,171.614,42.034,199.642,84.741c4.225,6.444,5.706,12.517,5.706,24.196v31.887h28.244v-40.101
		C1082.94,258.681,1079.19,249.65,1075.938,244.365z"/>
	<path d="M335.607,299.867c-1.657-26.148-18.854-41.142-47.201-41.142h-52.453v48.888h26.677v-24.051h25.918
		c12.712,0,18.981,5.631,19.724,17.721c0.041,0.471,0.028,3.596,0.012,5.105v1.225h27.261c0-0.287,0.012-0.637,0.033-1.004
		C335.632,303.646,335.672,300.92,335.607,299.867z"/>
	<path d="M433.926,258.726h-54.648c-16.854,0-23.119,6.611-23.119,24.396v24.492h26.685v-24.051h47.523v24.051h26.677v-24.492
		C457.045,265.337,450.776,258.726,433.926,258.726z"/>
	<rect x="555.609" y="258.726" width="24.95" height="48.888"/>
	<polygon points="502.188,258.726 483.849,258.726 483.849,307.613 508.812,307.613 508.812,301.189 515.231,307.613 
		551.132,307.613 	"/>
	<rect x="597.055" y="294.166" width="38.614" height="13.447"/>
	<path d="M736.775,305.516c3.579-3.355,6.587-8.152,6.587-13.834v-12.029c0-20.927-17.193-20.927-22.462-20.927h-68.278v48.888
		h86.133C738.126,306.861,737.465,306.172,736.775,305.516z M716.894,293.188c-0.393,0.123-1.266,0.273-3.191,0.273h-34.688v-11.168
		h34.688c1.926,0,2.799,0.162,3.191,0.27C716.894,282.689,716.894,293.064,716.894,293.188z"/>
	<rect x="768.403" y="258.726" width="26.689" height="48.888"/>
	<rect x="835.911" y="258.726" width="26.697" height="48.888"/>
	<path d="M985.132,279.652c0-20.927-17.716-20.927-23.005-20.927h-69.36v48.888h91.61c0.489-1.984,0.755-4.236,0.755-6.787V279.652z
		 M959.021,296.27c0,0.326,0,0.758-0.017,1.043c-0.334,0.1-1.15,0.25-3.035,0.25h-36.815v-14.475h36.815
		c1.885,0,2.701,0.146,3.035,0.232c0.017,0.291,0.017,0.723,0.017,1.064V296.27z"/>
	<path fill="#C72D27" d="M637.868,113.998c-5.822-2.016-13.091-3.236-21.021-3.236c-7.655,0-14.703,1.13-20.417,3.028l-3.191,1.179
		L267.957,236.525c0,0,213.623-28.583,348.083-28.583c134.477,0,349.707,28.583,349.707,28.583l-325.96-121.813L637.868,113.998z"/>
</g>
</svg>
