<svg width="210" height="71" viewBox="0 0 210 71" fill="none" xmlns="http://www.w3.org/2000/svg"><path fill-rule="evenodd" clip-rule="evenodd" d="M160.605 41.5289C159.127 41.5289 157.899 42.9503 154.866 42.9503C150.9 42.9503 148.609 40.1945 148.164 36.7387H154.945C156.533 36.7387 157.423 35.7872 157.423 34.5076C157.423 33.2281 156.533 32.2753 154.945 32.2753H148.602C149.514 29.671 151.614 27.794 154.866 27.794C157.899 27.794 158.91 28.9793 160.388 28.9793C161.725 28.9793 162.627 27.93 162.627 26.7113C162.627 23.7349 157.5 22.9216 154.866 22.9216C147.501 22.9216 142.445 28.3342 142.445 35.371C142.445 42.3756 147.537 47.8204 154.866 47.8204C157.536 47.8204 162.987 47.0763 162.987 43.8292C162.987 43.0505 162.231 41.5289 160.605 41.5289ZM133.467 37.1096C137.151 36.5682 140.146 34.4385 140.146 30.7168C140.146 25.4043 136.717 23.0718 131.157 23.0718H119.701L119.704 44.7223C119.704 46.4121 120.86 47.3601 122.411 47.3601C123.964 47.3601 125.118 46.4121 125.118 44.7223V27.7404H131.157C133.144 27.7404 134.515 28.7874 134.515 30.7168C134.515 32.6104 133.125 33.8673 131.141 33.8673H129.018C129.018 33.8673 126.436 33.7123 126.436 36.059C126.436 37.0905 127.264 37.831 127.264 37.831L135.527 46.48C136.104 47.1228 136.968 47.3601 137.619 47.3601C139.209 47.3601 140.326 46.0734 140.326 44.7545C140.326 44.2823 140.112 43.7755 139.606 43.2675L133.467 37.1096ZM197.407 45.3591C191.823 45.3591 187.555 41.0233 187.555 35.3698C187.555 29.7151 191.823 25.3793 197.407 25.3793C202.992 25.3793 207.294 29.7151 207.294 35.3698C207.294 41.0233 202.992 45.3591 197.407 45.3591ZM197.477 22.881C190.399 22.881 184.85 28.4308 184.85 35.439C184.85 42.4471 190.297 47.8573 197.373 47.8573C204.448 47.8573 210 42.3076 210 35.2994C210 28.2937 204.553 22.881 197.477 22.881ZM183.632 42.3422C183.216 42.3422 182.869 42.5497 182.624 42.7929C181.55 43.7982 179.573 45.3591 175.826 45.3591C170.242 45.3591 165.976 41.0233 165.976 35.3698C165.976 29.7151 170.242 25.3793 175.826 25.3793C179.747 25.3793 181.829 27.2169 182.382 27.7034C182.66 27.9467 183.006 28.085 183.355 28.085C184.048 28.085 184.569 27.5985 184.569 26.8699C184.569 26.3845 184.325 25.9338 183.874 25.5868C183.006 24.8582 180.405 22.881 175.897 22.881C168.818 22.881 163.268 28.4308 163.268 35.439C163.268 42.4471 168.715 47.8573 175.792 47.8573C180.787 47.8573 183.39 45.5678 184.325 44.6305C184.639 44.3539 184.846 43.9723 184.846 43.5561C184.846 42.8633 184.325 42.3422 183.632 42.3422ZM113.019 22.8012C111.466 22.8012 110.312 23.748 110.312 25.4413V44.6556C110.312 46.3465 111.466 47.2945 113.019 47.2945C114.571 47.2945 115.726 46.3465 115.726 44.6556V25.4413C115.726 23.748 114.571 22.8012 113.019 22.8012ZM85.4595 22.9598C83.7472 22.9598 82.6537 24.0389 82.6537 25.6404V44.6675C82.6537 46.2702 83.7472 47.3493 85.4595 47.3493C87.1696 47.3493 88.263 46.2702 88.263 44.6675V25.6404C88.263 24.0389 87.1696 22.9598 85.4595 22.9598ZM102.87 22.9299C101.16 22.9299 100.066 24.0103 100.066 25.6118V32.2801L91.5173 32.2884C90.109 32.2884 89.1622 33.1649 89.1622 34.5386C89.1622 35.9112 90.016 36.7888 91.4243 36.7888L100.066 36.7924V44.6389C100.066 46.2404 101.16 47.3183 102.87 47.3183C104.58 47.3183 105.675 46.2404 105.675 44.6389V25.6118C105.675 24.0103 104.58 22.9299 102.87 22.9299ZM45.9733 50.2435C48.0541 50.2435 49.3861 48.9306 49.3861 46.9821V23.8314C49.3861 21.8818 48.0541 20.5688 45.9733 20.5688C43.8936 20.5688 42.5616 21.8818 42.5616 23.8314V31.945L32.1597 31.9557C30.4473 31.9557 29.2942 33.0218 29.2942 34.6913C29.2942 36.3619 30.334 37.4316 32.0464 37.4316L42.5616 37.4351V46.9821C42.5616 48.9306 43.8936 50.2435 45.9733 50.2435ZM21.375 23.866V47.0166C21.375 48.9663 22.707 50.2804 24.7879 50.2804C26.8687 50.2804 28.2007 48.9663 28.2007 47.0166V23.866C28.2007 21.9163 26.8687 20.6034 24.7879 20.6034C22.707 20.6034 21.375 21.9163 21.375 23.866Z" fill="white"></path> <path fill-rule="evenodd" clip-rule="evenodd" d="M63.567 37.4937C62.4425 52.1062 50.1947 63.6517 35.2995 63.6517C19.6662 63.6517 6.94733 50.9328 6.94733 35.2995C6.94733 19.6662 19.6662 6.94733 35.2995 6.94733C50.0027 6.94733 62.1253 18.1983 63.5169 32.5425L67.1933 36.0591L70.5084 32.8072C69.2253 14.5016 53.9247 0 35.2995 0C15.8348 0 0 15.8348 0 35.2995C0 54.763 15.8348 70.5978 35.2995 70.5978C53.9533 70.5978 69.2718 56.0521 70.5144 37.7071L67.1933 40.9637L63.567 37.4937Z" fill="#EA8912" class="rotate-outer"></path></svg>