<?xml version="1.0" encoding="UTF-8"?><svg id="Layer_2" xmlns="http://www.w3.org/2000/svg" viewBox="0 0 70.51 70.6"><defs><style>.cls-1{fill:#fff;fill-rule:evenodd;}</style></defs><g id="Layer_1-2"><path class="cls-1" d="m45.97,50.24c2.08,0,3.41-1.31,3.41-3.26v-23.15c0-1.95-1.33-3.26-3.41-3.26s-3.41,1.31-3.41,3.26v8.11h-10.4c-1.71.01-2.87,1.08-2.87,2.75s1.04,2.74,2.75,2.74h10.52v9.55c0,1.95,1.33,3.26,3.41,3.26Zm-24.6-26.38v23.15c0,1.95,1.33,3.26,3.41,3.26s3.41-1.31,3.41-3.26v-23.15c0-1.95-1.33-3.26-3.41-3.26s-3.41,1.31-3.41,3.26Z"/><path class="cls-1" d="m63.57,37.49c-1.12,14.61-13.37,26.16-28.27,26.16-15.63,0-28.35-12.72-28.35-28.35S19.67,6.95,35.3,6.95c14.7,0,26.83,11.25,28.22,25.6l3.68,3.52,3.32-3.25C69.23,14.5,53.92,0,35.3,0S0,15.83,0,35.3s15.83,35.3,35.3,35.3,33.97-14.55,35.21-32.89l-3.32,3.26-3.63-3.47Z"/></g></svg>