<?xml version="1.0" encoding="utf-8"?>
<!-- Generator: Adobe Illustrator 14.0.0, SVG Export Plug-In . SVG Version: 6.00 Build 43363)  -->
<!DOCTYPE svg PUBLIC "-//W3C//DTD SVG 1.1//EN" "http://www.w3.org/Graphics/SVG/1.1/DTD/svg11.dtd">
<svg version="1.1" xmlns="http://www.w3.org/2000/svg" xmlns:xlink="http://www.w3.org/1999/xlink" x="0px" y="0px" width="401.865456186"
	 height="248.839502029" viewBox="0 0 583 361" enable-background="new 0 0 583 361" xml:space="preserve">
<g id="Layer_1">
</g>
<g id="Artwork">
	<g>
		<g>
			<path fill="#EE312F" d="M245.169,43.826c-34.676,17.93-57.083,50.924-64.513,88.668L342.904,37.69
				C310.863,26.692,275.96,27.874,245.169,43.826z"/>
			<path fill="#EE312F" d="M230.013,12.762c-33.245,6.34-62.992,24.633-81.852,53.765c-21.247,32.767-24.36,72.511-12.111,108.983
				L230.013,12.762z"/>
			<path fill="#EE312F" d="M119.302,239.615l0.022-187.927c-25.632,22.111-42.244,52.833-44.016,87.464
				C73.286,178.169,90.465,214.141,119.302,239.615z"/>
			<path fill="#EE312F" d="M127.936,292.197L35.314,128.677c-11.408,31.882-10.704,66.785,4.817,97.804
				C57.606,261.406,90.26,284.244,127.936,292.197z"/>
			<path fill="#EE312F" d="M63.037,328.283c32.496,21.611,72.217,25.178,108.848,13.361L10.227,245.796
				C16.181,279.131,34.132,309.082,63.037,328.283z"/>
		</g>
		<g>
			<path fill="#003B7E" d="M185.405,167.194c2.66-0.182,8.976-0.273,12.817,0.091c7.021,0.636,10.044,5.431,10.044,11.476
				c0,7.908-5.158,13.521-14.043,14.406c-3.023,0.273-6.59,0.273-8.818,0V167.194z M185.405,196.621
				c2.228,0,8.022,0.636,11.999-0.159c12.566-2.499,19.042-7.385,19.042-18.133c0-10.771-5.681-14.611-22.951-14.611h-15.906v60.854
				c1.25-0.114,2.59-0.272,3.908-0.272c1.25,0,2.5,0.158,3.908,0.272V196.621z"/>
			<path fill="#003B7E" d="M245.624,167.012c3.726-0.182,9.771-0.431,13.065,0.091c6.682,1.067,9.794,5.067,9.794,11.225
				c0,6.908-4.886,11.362-11.385,12.703c-4.545,0.886-10.249,0.522-11.475,0.454V167.012z M237.807,224.571
				c1.228-0.114,2.567-0.272,3.909-0.272c1.249,0,2.476,0.158,3.909,0.272v-29.7h3.386l7.112,8.339l10.498,13.611
				c1.864,2.5,3.636,5,5.59,7.749c1.591-0.114,3.386-0.272,5.067-0.272c1.704,0,3.295,0.158,5.158,0.272l-1.681-2.228l-4.272-4.998
				l-18.315-23.202c8.976-1.613,18.225-6.59,18.225-16.906c0-8.977-6.044-13.521-19.747-13.521h-18.838V224.571z"/>
			<path fill="#003B7E" d="M309.659,190.236h13.794c2.658,0,5.227-0.364,7.907-0.455c-0.091,0.728-0.272,1.523-0.272,2.318
				c0,0.704,0.182,1.5,0.272,2.499c-2.681-0.091-5.249-0.454-7.907-0.454h-13.794v25.973c5.408,0.182,10.748-0.182,16.089-0.363
				c2.749-0.092,5.43-0.363,8.18-0.795c-0.091,0.977-0.271,1.772-0.271,2.658c0,0.909,0.181,1.795,0.271,2.682H301.82v-60.582
				h31.586c-0.092,1-0.273,1.795-0.273,2.682c0,0.886,0.182,1.772,0.273,2.659c-2.682-0.522-5.341-0.796-8.021-0.978l-8.863-0.159
				h-6.862V190.236z"/>
			<path fill="#003B7E" d="M415.576,163.717c2.316,21.974,4.795,43.857,7.203,60.854c-1.592-0.114-2.842-0.272-4.182-0.272
				c-1.432,0-2.842,0.158-4.182,0.272c-1.5-17.884-3.295-37.085-4.521-45.902c-10.317,18.429-17.975,32.631-23.315,44.902h-0.978
				l-4.885-10.044c-5.704-11.725-11.93-23.292-17.975-34.858c-1.954,17.338-4.34,34.949-4.34,45.902
				c-1.16-0.114-2.137-0.272-3.113-0.272c-1.16,0-2.137,0.158-3.205,0.272c2.318-14.339,7.658-51.515,8.521-60.854h2.318
				c7.111,14.157,15.656,30.881,25.155,46.607c8.454-15.204,16.655-30.678,25.632-46.607H415.576z"/>
			<path fill="#003B7E" d="M445.457,163.717c1.25,0.114,2.59,0.272,3.932,0.272c1.227,0,2.477-0.159,3.885-0.272v60.854
				c-1.408-0.114-2.658-0.272-3.885-0.272c-1.342,0-2.682,0.158-3.932,0.272V163.717z"/>
			<path fill="#003B7E" d="M487.268,190.236h13.795c2.635,0,5.227-0.364,7.885-0.455c-0.092,0.728-0.25,1.523-0.25,2.318
				c0,0.704,0.158,1.5,0.25,2.499c-2.658-0.091-5.25-0.454-7.885-0.454h-13.795v25.973c5.408,0.182,10.75-0.182,16.09-0.363
				c2.75-0.092,5.408-0.363,8.18-0.795c-0.09,0.977-0.271,1.772-0.271,2.658c0,0.909,0.182,1.795,0.271,2.682H479.43v-60.582h31.586
				c-0.092,1-0.273,1.795-0.273,2.682c0,0.886,0.182,1.772,0.273,2.659c-2.682-0.522-5.34-0.796-8.021-0.978l-8.885-0.159h-6.842
				V190.236z"/>
			<path fill="#003B7E" d="M541.602,167.012c3.727-0.182,9.771-0.431,13.066,0.091c6.658,1.067,9.771,5.067,9.771,11.225
				c0,6.908-4.887,11.362-11.385,12.703c-4.521,0.886-10.227,0.522-11.453,0.454V167.012z M533.762,224.571
				c1.25-0.114,2.59-0.272,3.908-0.272c1.25,0,2.5,0.158,3.932,0.272v-29.7h3.385l7.113,8.339l10.477,13.611
				c1.863,2.5,3.658,5,5.613,7.749c1.59-0.114,3.361-0.272,5.066-0.272c1.682,0,3.295,0.158,5.158,0.272l-1.705-2.228l-4.248-4.998
				l-18.338-23.202c8.977-1.613,18.246-6.59,18.246-16.906c0-8.977-6.045-13.521-19.746-13.521h-18.861V224.571z"/>
			<path fill="#003B7E" d="M177.611,244.932h31.2c-0.091,0.977-0.273,1.75-0.273,2.637s0.182,1.771,0.273,2.635
				c-2.659-0.521-5.272-0.795-7.908-0.954l-8.794-0.181h-6.771v22.064h13.611c2.66,0,5.205-0.363,7.84-0.432
				c-0.091,0.682-0.273,1.477-0.273,2.271c0,0.705,0.182,1.5,0.273,2.455c-2.636-0.092-5.181-0.432-7.84-0.432h-13.611v30.063
				c-1.409-0.09-2.636-0.271-3.863-0.271c-1.341,0-2.636,0.182-3.864,0.271V244.932z"/>
			<path fill="#003B7E" d="M301.024,274.381c0.614,9.658-6.091,28.838-24.633,28.838c-13.088,0-23.996-9.316-23.996-27.154
				c0-17.861,9.339-29.564,24.792-29.564c7.045,0,13.907,3,18.293,8.544C300.047,260.93,301.024,267.088,301.024,274.381z
				 M276.142,306.127c19.611,0,33.471-12.861,33.471-32.449c0-21.088-16.77-30.063-33.29-30.063
				c-18.202,0-32.54,12.134-32.54,31.382C243.783,293.811,256.712,306.127,276.142,306.127z"/>
			<path fill="#003B7E" d="M400.6,274.381c0.613,9.658-6.044,28.838-24.609,28.838c-13.09,0-23.996-9.316-23.996-27.154
				c0-17.861,9.316-29.564,24.791-29.564c7.045,0,13.907,3,18.27,8.544C399.646,260.93,400.6,267.088,400.6,274.381z
				 M375.717,306.127c19.634,0,33.518-12.861,33.518-32.449c0-21.088-16.815-30.063-33.336-30.063
				c-18.178,0-32.518,12.134-32.518,31.382C343.381,293.811,356.311,306.127,375.717,306.127z"/>
			<path fill="#003B7E" d="M455.818,248.455c3.773-0.092,7.453-0.342,11.066-0.342c19.703,0,27.359,6.749,27.359,25.383
				c0,10.725-3.18,20.473-12.68,25.223c-7.111,3.613-18.02,2.568-25.746,2.137V248.455z M448.092,304.787h17.135
				c9.316,0,19.066-0.16,26.541-6.682c6.59-5.795,11.066-13.701,11.066-25.928c0-8.34-2.818-16.52-9.408-21.975
				c-7.385-6.158-16.246-5.271-25.404-5.271h-19.93V304.787z"/>
			<path fill="#003B7E" d="M540.533,293.197c3.432,5.613,7.408,9.135,14.248,9.135c7.113,0,12.227-5.885,12.227-12.838
				c0-16.34-27.52-9.137-27.52-28.996c0-11.34,8.977-16.884,19.496-16.884c4.227,0,9.316,1.317,12.59,4.227
				c-1.045,2.272-1.682,4.749-2.363,7.203h-0.91c-1.816-4.749-5.703-7.636-10.883-7.636c-6.068,0-11.066,4.022-11.066,10.271
				c0,16.156,27.676,9.658,27.676,28.383c0,12.588-9.748,20.064-21.701,20.064c-4.316,0-11.338-1.863-14.338-5.113
				c0.908-2.545,1.34-5.18,1.682-7.816H540.533z"/>
		</g>
	</g>
</g>
</svg>
